<?xml version="1.0" encoding="UTF-8" standalone="no"?>
<svg
   xmlns:dc="http://purl.org/dc/elements/1.1/"
   xmlns:cc="http://creativecommons.org/ns#"
   xmlns:rdf="http://www.w3.org/1999/02/22-rdf-syntax-ns#"
   xmlns:svg="http://www.w3.org/2000/svg"
   xmlns="http://www.w3.org/2000/svg"
   xmlns:sodipodi="http://sodipodi.sourceforge.net/DTD/sodipodi-0.dtd"
   xmlns:inkscape="http://www.inkscape.org/namespaces/inkscape"
   width="62"
   height="65"
   viewBox="0 0 14.773438 17.315574"
   version="1.1"
   preserveAspectRatio="xMidYMid"
   id="svg4805"
   sodipodi:docname="logo-dotnet2.svg"
   inkscape:version="0.92.3 (2405546, 2018-03-11)">
  <metadata
     id="metadata4809">
    <rdf:RDF>
      <cc:Work
         rdf:about="">
        <dc:format>image/svg+xml</dc:format>
        <dc:type
           rdf:resource="http://purl.org/dc/dcmitype/StillImage" />
        <dc:title />
      </cc:Work>
    </rdf:RDF>
  </metadata>
  <sodipodi:namedview
     pagecolor="#ffffff"
     bordercolor="#666666"
     borderopacity="1"
     objecttolerance="10"
     gridtolerance="10"
     guidetolerance="10"
     inkscape:pageopacity="0"
     inkscape:pageshadow="2"
     inkscape:window-width="1920"
     inkscape:window-height="1058"
     id="namedview4807"
     showgrid="false"
     inkscape:zoom="0.96721311"
     inkscape:cx="128"
     inkscape:cy="122"
     inkscape:window-x="1272"
     inkscape:window-y="-8"
     inkscape:window-maximized="1"
     inkscape:current-layer="svg4805"
     scale-x="1" />
  <defs
     id="defs4693">
    <linearGradient
       x1="148.63573"
       y1="1.1248969"
       x2="148.63573"
       y2="91.960251"
       id="linearGradient-1"
       gradientTransform="scale(0.74882432,1.3354267)"
       gradientUnits="userSpaceOnUse">
      <stop
         stop-color="#0994DC"
         offset="0%"
         id="stop4551" />
      <stop
         stop-color="#66CEF5"
         offset="35.000601%"
         id="stop4553" />
      <stop
         stop-color="#66CEF5"
         offset="35.000601%"
         id="stop4555" />
      <stop
         stop-color="#127BCA"
         offset="84.616101%"
         id="stop4557" />
      <stop
         stop-color="#127BCA"
         offset="84.616101%"
         id="stop4559" />
      <stop
         stop-color="#127BCA"
         offset="100%"
         id="stop4561" />
    </linearGradient>
    <linearGradient
       x1="153.02457"
       y1="-1.1886086"
       x2="153.02457"
       y2="93.049744"
       id="linearGradient-2"
       gradientTransform="scale(0.75757096,1.3200084)"
       gradientUnits="userSpaceOnUse">
      <stop
         stop-color="#0E76BC"
         offset="0%"
         id="stop4564" />
      <stop
         stop-color="#36AEE8"
         offset="36.0001%"
         id="stop4566" />
      <stop
         stop-color="#36AEE8"
         offset="36.0001%"
         id="stop4568" />
      <stop
         stop-color="#00ADEF"
         offset="84.616101%"
         id="stop4570" />
      <stop
         stop-color="#00ADEF"
         offset="84.616101%"
         id="stop4572" />
      <stop
         stop-color="#00ADEF"
         offset="100%"
         id="stop4574" />
    </linearGradient>
    <linearGradient
       x1="192.15369"
       y1="70.34584"
       x2="192.15369"
       y2="-2.2472548"
       id="linearGradient-3"
       gradientTransform="scale(0.73341404,1.3634863)"
       gradientUnits="userSpaceOnUse">
      <stop
         stop-color="#1C63B7"
         offset="0%"
         id="stop4577" />
      <stop
         stop-color="#33BDF2"
         offset="50%"
         id="stop4579" />
      <stop
         stop-color="#33BDF2"
         stop-opacity="0.41960785"
         offset="100%"
         id="stop4581" />
    </linearGradient>
    <linearGradient
       x1="186.45287"
       y1="-10.218084"
       x2="186.45287"
       y2="82.895401"
       id="linearGradient-4"
       gradientTransform="scale(0.72094583,1.3870668)"
       gradientUnits="userSpaceOnUse">
      <stop
         stop-color="#166AB8"
         offset="0%"
         id="stop4584" />
      <stop
         stop-color="#36AEE8"
         offset="39.999399%"
         id="stop4586" />
      <stop
         stop-color="#36AEE8"
         offset="39.999399%"
         id="stop4588" />
      <stop
         stop-color="#0798DD"
         offset="84.616101%"
         id="stop4590" />
      <stop
         stop-color="#0798DD"
         offset="84.616101%"
         id="stop4592" />
      <stop
         stop-color="#0798DD"
         offset="100%"
         id="stop4594" />
    </linearGradient>
    <linearGradient
       x1="156.07475"
       y1="-10.742076"
       x2="156.07475"
       y2="98.585381"
       id="linearGradient-5"
       gradientTransform="scale(0.79604186,1.2562154)"
       gradientUnits="userSpaceOnUse">
      <stop
         stop-color="#124379"
         offset="0%"
         id="stop4597" />
      <stop
         stop-color="#1487CB"
         offset="38.9999%"
         id="stop4599" />
      <stop
         stop-color="#1487CB"
         offset="38.9999%"
         id="stop4601" />
      <stop
         stop-color="#165197"
         offset="78.022802%"
         id="stop4603" />
      <stop
         stop-color="#165197"
         offset="78.022802%"
         id="stop4605" />
      <stop
         stop-color="#165197"
         offset="100%"
         id="stop4607" />
    </linearGradient>
    <linearGradient
       x1="87.175957"
       y1="22.715433"
       x2="111.6796"
       y2="22.715433"
       id="linearGradient-6"
       gradientTransform="scale(0.7924371,1.2619298)"
       gradientUnits="userSpaceOnUse">
      <stop
         stop-color="#33BDF2"
         stop-opacity="0.69803923"
         offset="0%"
         id="stop4610" />
      <stop
         stop-color="#1DACD8"
         offset="100%"
         id="stop4612" />
    </linearGradient>
    <linearGradient
       x1="239.97688"
       y1="83.676613"
       x2="239.97688"
       y2="-2.6729083"
       id="linearGradient-7"
       gradientTransform="scale(0.89555689,1.1166236)"
       gradientUnits="userSpaceOnUse">
      <stop
         stop-color="#136AB4"
         offset="0%"
         id="stop4615" />
      <stop
         stop-color="#59CAF5"
         stop-opacity="0.54901963"
         offset="60.000002%"
         id="stop4617" />
      <stop
         stop-color="#59CAF5"
         stop-opacity="0.23529412"
         offset="100%"
         id="stop4619" />
    </linearGradient>
    <linearGradient
       x1="0.20657437"
       y1="44.065479"
       x2="84.716034"
       y2="44.065479"
       id="linearGradient-8"
       gradientTransform="scale(0.85224268,1.1733747)"
       gradientUnits="userSpaceOnUse">
      <stop
         stop-color="#05A1E6"
         stop-opacity="0.24705882"
         offset="0%"
         id="stop4622" />
      <stop
         stop-color="#05A1E6"
         offset="100%"
         id="stop4624" />
    </linearGradient>
    <linearGradient
       x1="49.151291"
       y1="78.141998"
       x2="49.151291"
       y2="-2.3334377"
       id="linearGradient-9"
       gradientTransform="scale(0.81513755,1.2267868)"
       gradientUnits="userSpaceOnUse">
      <stop
         stop-color="#318ED5"
         offset="0%"
         id="stop4627" />
      <stop
         stop-color="#38A7E4"
         offset="100%"
         id="stop4629" />
    </linearGradient>
    <linearGradient
       x1="51.798016"
       y1="85.960442"
       x2="51.798016"
       y2="0.21776693"
       id="linearGradient-10"
       gradientTransform="scale(0.89345663,1.1192485)"
       gradientUnits="userSpaceOnUse">
      <stop
         stop-color="#05A1E6"
         offset="0%"
         id="stop4632" />
      <stop
         stop-color="#05A1E6"
         stop-opacity="0.54901963"
         offset="100%"
         id="stop4634" />
    </linearGradient>
    <linearGradient
       x1="63.918819"
       y1="81.367058"
       x2="63.918819"
       y2="16.106119"
       id="linearGradient-11"
       gradientTransform="scale(0.80475828,1.2426091)"
       gradientUnits="userSpaceOnUse">
      <stop
         stop-color="#1959A6"
         offset="0%"
         id="stop4637" />
      <stop
         stop-color="#05A1E6"
         offset="50%"
         id="stop4639" />
      <stop
         stop-color="#05A1E6"
         offset="50%"
         id="stop4641" />
      <stop
         stop-color="#7EC5EA"
         offset="91.758698%"
         id="stop4643" />
      <stop
         stop-color="#7EC5EA"
         offset="100%"
         id="stop4645" />
    </linearGradient>
    <linearGradient
       x1="63.664349"
       y1="82.188759"
       x2="45.568501"
       y2="6.8531346"
       id="linearGradient-12"
       gradientTransform="scale(0.85678149,1.1671587)"
       gradientUnits="userSpaceOnUse">
      <stop
         stop-color="#165096"
         offset="0%"
         id="stop4648" />
      <stop
         stop-color="#0D82CA"
         offset="100%"
         id="stop4650" />
    </linearGradient>
    <linearGradient
       x1="262.19904"
       y1="34.959679"
       x2="262.19904"
       y2="0.18922541"
       id="linearGradient-13"
       gradientTransform="scale(0.75668744,1.3215496)"
       gradientUnits="userSpaceOnUse">
      <stop
         stop-color="#05A1E6"
         offset="0%"
         id="stop4653" />
      <stop
         stop-color="#0495D6"
         offset="87.362701%"
         id="stop4655" />
      <stop
         stop-color="#0495D6"
         offset="100%"
         id="stop4657" />
    </linearGradient>
    <linearGradient
       x1="278.12662"
       y1="-3.1617992"
       x2="254.50661"
       y2="80.653893"
       id="linearGradient-14"
       gradientTransform="scale(0.79101057,1.2642056)"
       gradientUnits="userSpaceOnUse">
      <stop
         stop-color="#38A7E4"
         stop-opacity="0.32941177"
         offset="0%"
         id="stop4660" />
      <stop
         stop-color="#0E88D3"
         offset="96.153301%"
         id="stop4662" />
      <stop
         stop-color="#0E88D3"
         offset="96.153301%"
         id="stop4664" />
      <stop
         stop-color="#0E88D3"
         offset="100%"
         id="stop4666" />
    </linearGradient>
    <linearGradient
       x1="240.17139"
       y1="-0.23607659"
       x2="240.17139"
       y2="84.61055"
       id="linearGradient-15"
       gradientTransform="scale(0.84637541,1.1815088)"
       gradientUnits="userSpaceOnUse">
      <stop
         stop-color="#168CD4"
         offset="0%"
         id="stop4669" />
      <stop
         stop-color="#1C87CC"
         offset="50%"
         id="stop4671" />
      <stop
         stop-color="#154B8D"
         offset="100%"
         id="stop4673" />
    </linearGradient>
    <linearGradient
       x1="27.284046"
       y1="30.072891"
       x2="35.638676"
       y2="3.6014817"
       id="linearGradient-16"
       gradientTransform="scale(2.7638879,0.36180917)"
       gradientUnits="userSpaceOnUse">
      <stop
         stop-color="#97D6EE"
         offset="0%"
         id="stop4676" />
      <stop
         stop-color="#55C1EA"
         offset="70.329303%"
         id="stop4678" />
      <stop
         stop-color="#55C1EA"
         offset="100%"
         id="stop4680" />
    </linearGradient>
    <linearGradient
       x1="47.19492"
       y1="4.9227104"
       x2="56.891903"
       y2="20.471931"
       id="linearGradient-17"
       gradientTransform="scale(1.8807336,0.5317074)"
       gradientUnits="userSpaceOnUse">
      <stop
         stop-color="#7ACCEC"
         offset="0%"
         id="stop4683" />
      <stop
         stop-color="#3FB7ED"
         offset="100%"
         id="stop4685" />
    </linearGradient>
    <linearGradient
       x1="236.12985"
       y1="4.2293315"
       x2="236.12985"
       y2="83.002914"
       id="linearGradient-18"
       gradientTransform="scale(0.80338875,1.2447274)"
       gradientUnits="userSpaceOnUse">
      <stop
         stop-color="#1DA7E7"
         offset="0%"
         id="stop4688" />
      <stop
         stop-color="#37ABE7"
         stop-opacity="0"
         offset="100%"
         id="stop4690" />
    </linearGradient>
  </defs>
  <g
     id="g4803"
     transform="matrix(0.06225508,0,0,0.06225508,-0.61742658,0.93088952)">
    <g
       transform="translate(26.734177,116.65823)"
       id="g4715"
       style="fill:#000000">
      <path
         d="m 187.53495,11.347281 c 0,-0.429286 -0.11779,-0.736162 -0.35993,-0.936749 -0.26824,-0.215899 -0.7322,-0.331018 -1.37803,-0.331018 h -0.92849 v 2.551899 h 1.12057 c 1.03478,0 1.54588,-0.429286 1.54588,-1.284132 z m 1.4477,5.320749 h -1.27595 l -0.81369,-1.795483 c -0.41325,-0.899727 -0.85493,-1.34959 -1.33744,-1.34959 h -0.68707 v 3.145073 h -1.05122 V 9.183676 h 2.10633 c 0.93667,0 1.63978,0.2028557 2.1227,0.6259037 0.40895,0.3638283 0.61342,0.8302993 0.61342,1.4110783 0,0.515322 -0.16688,0.948821 -0.50317,1.308355 -0.32721,0.364152 -0.79765,0.609539 -1.39868,0.736486 v 0.03241 c 0.41714,0.09819 0.83427,0.556233 1.23901,1.382319 l 0.98576,1.991858 z m 2.33106,-3.668577 c 0,-1.472243 -0.50285,-2.715463 -1.50497,-3.7012251 -1.00602,-0.985438 -2.23296,-1.4801823 -3.68065,-1.4801823 -1.4929,0 -2.7358,0.4947443 -3.72156,1.4886886 -0.98576,0.9978328 -1.47621,2.2325468 -1.47621,3.6927188 0,1.492901 0.51102,2.740091 1.5253,3.734036 1.00213,0.99362 2.22899,1.484394 3.67247,1.484394 1.4353,0 2.66216,-0.494744 3.67246,-1.501083 1.01031,-0.989732 1.51316,-2.232628 1.51316,-3.717347 z m 0.7074,-0.03241 c 0,1.652577 -0.5683,3.038785 -1.7092,4.155139 -1.14115,1.12478 -2.53983,1.684902 -4.21258,1.684902 -1.68466,0 -3.08326,-0.55194 -4.19597,-1.635889 -1.11206,-1.099909 -1.66432,-2.482228 -1.66432,-4.158947 0,-1.640101 0.56433,-3.0182074 1.69308,-4.1508454 1.12875,-1.1287494 2.53553,-1.6930836 4.21655,-1.6930836 1.64796,0 3.03027,0.5397874 4.15084,1.6152304 1.149,1.1042026 1.7216,2.4947036 1.7216,4.1834936 z"
         id="path4695"
         inkscape:connector-curvature="0" />
      <path
         d="M 32.065021,33.836314 H 28.437679 V 13.077306 c 0,-1.639777 0.10799,-3.6355237 0.301043,-5.9911288 h -0.08182 c -0.339605,1.3780253 -0.65045,2.3759393 -0.924273,2.9936608 L 17.189557,33.836314 H 15.422833 L 4.8591392,10.251585 C 4.5614096,9.5929519 4.2499484,8.5336304 3.934882,7.0861772 H 3.8563808 C 3.9676192,8.3251848 4.0297883,10.333327 4.0297883,13.118218 V 33.836314 H 0.53298228 V 2.9229367 H 5.3178572 L 14.801888,24.479271 c 0.715528,1.623737 1.177818,2.858775 1.40258,3.701225 h 0.150505 c 0.617365,-1.689114 1.108124,-2.956962 1.480442,-3.79123 L 27.523613,2.9229367 h 4.539463 V 33.836314 Z"
         id="path4697"
         inkscape:connector-curvature="0" />
      <path
         d="M 43.223218,33.835342 H 39.698276 V 11.759473 h 3.524942 z M 43.832757,3.8459139 c 0,0.6503696 -0.229022,1.1941266 -0.683179,1.6401013 -0.44557,0.4455696 -0.997509,0.6707038 -1.64399,0.6707038 -0.629793,0 -1.177843,-0.2159798 -1.627382,-0.646157 C 39.428342,5.0770633 39.207178,4.5248 39.207178,3.8459139 c 0,-0.6379747 0.222461,-1.1817316 0.671028,-1.6234126 0.449539,-0.441681 0.997589,-0.6543393 1.627382,-0.6543393 0.646157,0 1.19842,0.2126583 1.64399,0.6543393 0.454157,0.441681 0.683179,0.9854379 0.683179,1.6234126 z"
         id="path4699"
         inkscape:connector-curvature="0" />
      <path
         d="M 65.253557,32.813934 C 63.560474,33.852679 61.54018,34.368 59.204828,34.368 c -3.165002,0 -5.713012,-1.050896 -7.659665,-3.149043 -1.889459,-2.036658 -2.842168,-4.666086 -2.842168,-7.88877 0,-3.615514 1.034532,-6.543392 3.120203,-8.768162 2.0736,-2.228982 4.862785,-3.341367 8.371686,-3.341367 1.917894,0 3.619159,0.376223 5.107767,1.120567 v 3.627666 c -1.647959,-1.157509 -3.390137,-1.730106 -5.259261,-1.730106 -2.249316,0 -4.077205,0.785256 -5.496465,2.351716 -1.476537,1.60316 -2.22477,3.746107 -2.22477,6.420739 0,2.568264 0.683099,4.600709 2.040871,6.101712 1.361742,1.492577 3.17359,2.241134 5.459524,2.241134 1.930289,0 3.737924,-0.634086 5.431007,-1.897559 z"
         id="path4701"
         inkscape:connector-curvature="0" />
      <path
         d="m 82.115289,15.341043 c -0.62161,-0.478299 -1.517043,-0.711615 -2.699099,-0.711615 -1.435301,0 -2.641903,0.642268 -3.619159,1.938471 -1.108496,1.447777 -1.660436,3.451706 -1.660436,6.011787 V 33.83437 H 70.603147 V 11.758501 h 3.533448 v 4.551939 h 0.08506 c 0.519534,-1.611341 1.321154,-2.850673 2.392628,-3.729741 1.001802,-0.801539 2.134764,-1.206603 3.381954,-1.206603 0.940638,0 1.640101,0.101428 2.1184,0.300962 v 3.664365 z"
         id="path4703"
         inkscape:connector-curvature="0" />
      <path
         d="m 101.80874,22.837468 c 0,-2.825721 -0.63798,-4.985033 -1.913927,-6.465539 -1.239007,-1.423149 -2.969114,-2.134764 -5.197772,-2.134764 -2.196334,0 -3.958765,0.719797 -5.275949,2.159311 -1.394471,1.537701 -2.089641,3.709164 -2.089641,6.527109 0,2.641904 0.662522,4.71518 1.99996,6.195605 1.328931,1.488607 3.120202,2.232952 5.36563,2.232952 2.322876,0 4.101752,-0.756415 5.320429,-2.261388 1.1942,-1.472324 1.79127,-3.554106 1.79127,-6.253286 m 3.62345,-0.124273 c 0,3.517083 -0.99362,6.34321 -2.97308,8.46161 -1.98749,2.126582 -4.66212,3.189954 -8.023821,3.189954 -3.312608,0 -5.950623,-1.063372 -7.8848,-3.189954 -1.893671,-2.049053 -2.84638,-4.756415 -2.84638,-8.122005 0,-3.840324 1.075362,-6.801256 3.234674,-8.903291 1.995747,-1.950623 4.666167,-2.932172 8.011828,-2.932172 3.291949,0 5.864509,1.026349 7.716939,3.059119 1.8364,2.044759 2.76464,4.858491 2.76464,8.436739"
         id="path4705"
         inkscape:connector-curvature="0" />
      <path
         d="m 122.95571,27.929276 c 0,1.807635 -0.67459,3.304425 -2.02839,4.498633 -1.47621,1.292314 -3.50469,1.938471 -6.05659,1.938471 -2.08996,0 -3.92215,-0.437469 -5.47621,-1.329013 v -3.799413 c 1.73011,1.406866 3.63974,2.114512 5.73788,2.114512 2.79737,0 4.19994,-1.030562 4.19994,-3.083585 0,-0.863109 -0.30752,-1.578613 -0.92816,-2.130876 -0.62169,-0.564334 -1.82829,-1.239008 -3.62345,-2.028476 -1.84855,-0.809721 -3.16541,-1.639777 -3.9424,-2.502805 -0.93246,-1.022461 -1.4029,-2.351392 -1.4029,-3.987281 0,-1.832182 0.73219,-3.357732 2.17989,-4.572192 1.45167,-1.218755 3.31658,-1.828213 5.60672,-1.828213 1.75466,0 3.32509,0.343494 4.71948,1.034775 v 3.557995 c -1.45588,-1.05114 -3.12021,-1.574643 -5.00966,-1.574643 -1.16958,0 -2.11022,0.291159 -2.80968,0.858815 -0.70741,0.580699 -1.06338,1.321154 -1.06338,2.224769 0,0.97758 0.29773,1.738289 0.88766,2.282046 0.52342,0.50317 1.63581,1.116597 3.31261,1.832101 1.88516,0.789469 3.24715,1.607453 4.0772,2.44561 1.07569,1.059403 1.61944,2.408993 1.61944,4.04877"
         id="path4707"
         inkscape:connector-curvature="0" />
      <path
         d="m 144.55037,22.837468 c 0,-2.825721 -0.63798,-4.985033 -1.9179,-6.465539 -1.23503,-1.423149 -2.96911,-2.134764 -5.1938,-2.134764 -2.19633,0 -3.95884,0.719797 -5.28389,2.159311 -1.39042,1.537701 -2.08178,3.709164 -2.08178,6.527109 0,2.641904 0.66252,4.71518 1.98756,6.195605 1.34571,1.488607 3.13698,2.232952 5.37811,2.232952 2.32677,0 4.10167,-0.756415 5.32043,-2.261388 1.19412,-1.472324 1.79127,-3.554106 1.79127,-6.253286 m 3.63155,-0.124273 c 0,3.517083 -1.0018,6.34321 -2.9854,8.46161 -1.97938,2.126582 -4.65401,3.189954 -8.01571,3.189954 -3.3165,0 -5.95451,-1.063372 -7.88877,-3.189954 -1.89359,-2.049053 -2.84638,-4.756415 -2.84638,-8.122005 0,-3.840324 1.08362,-6.801256 3.23086,-8.903291 1.99575,-1.950623 4.67038,-2.932172 8.01961,-2.932172 3.29227,0 5.86062,1.026349 7.70908,3.059119 1.84037,2.044759 2.77671,4.858491 2.77671,8.436739"
         id="path4709"
         inkscape:connector-curvature="0" />
      <path
         d="m 163.75231,4.2584304 c -0.69525,-0.3844051 -1.46795,-0.5806987 -2.34742,-0.5806987 -2.47437,0 -3.70131,1.5579544 -3.70131,4.678562 v 3.4025313 h 5.17355 v 2.993661 h -5.17355 v 19.082208 h -3.53733 V 14.752486 h -3.75429 v -2.993661 h 3.75429 V 8.1805772 c 0,-2.4295696 0.74426,-4.3353114 2.25749,-5.7094481 1.29653,-1.1942076 2.883,-1.78705821 4.76849,-1.78705821 1.09213,0 1.94276,0.13091645 2.56008,0.38448611 z"
         id="path4711"
         inkscape:connector-curvature="0" />
      <path
         d="m 177.69864,33.612881 c -0.83427,0.478623 -1.94665,0.715828 -3.32079,0.715828 -3.85239,0 -5.77847,-2.171707 -5.77847,-6.514957 V 14.755727 h -3.78702 v -2.997874 h 3.78702 V 6.3719696 c 1.12875,-0.3559696 2.3023,-0.7443443 3.54163,-1.1451139 v 6.5309973 h 5.55763 v 2.997874 h -5.55763 V 27.2128 c 0,1.480425 0.24207,2.539504 0.74823,3.152932 0.51135,0.634005 1.34562,0.94485 2.52347,0.94485 0.87915,0 1.63977,-0.235585 2.28593,-0.711615 z"
         id="path4713"
         inkscape:connector-curvature="0" />
    </g>
    <g
       transform="translate(0,160.40506)"
       id="g4725"
       style="fill:#000000">
      <path
         d="m 13.414392,76.247656 c 0,1.729782 -0.617373,3.226572 -1.864879,4.49045 -1.243253,1.259585 -2.7524862,1.893671 -4.5231393,1.893671 -1.7300821,0 -3.2023494,-0.634086 -4.4086279,-1.893671 -1.2066025,-1.263878 -1.80761922,-2.760668 -1.80761922,-4.49045 0,-1.778795 0.60101672,-3.279879 1.80761922,-4.523099 1.2062785,-1.247514 2.6785458,-1.864911 4.4086279,-1.864911 1.7706531,0 3.2798863,0.625903 4.5231393,1.889458 1.247506,1.263878 1.864879,2.764557 1.864879,4.498552"
         id="path4717"
         inkscape:connector-curvature="0" />
      <path
         d="M 92.531168,81.331605 H 81.006631 L 39.173865,16.727737 c -0.977588,-1.554066 -1.820046,-3.24318 -2.535574,-5.087514 h -0.343859 c 0.29773,1.729782 0.450188,5.443159 0.450188,11.13203 V 81.331605 H 27.244233 V 0.27925063 H 39.574651 L 80.155998,63.864952 c 1.615554,2.523139 2.719433,4.330694 3.279879,5.418613 h 0.225701 C 83.285355,66.952425 83.089385,62.977296 83.089385,57.36636 V 0.27925063 h 9.442836 V 81.331605 Z"
         id="path4719"
         inkscape:connector-curvature="0" />
      <path
         d="M 153.43608,81.331605 H 110.47847 V 0.27925063 h 41.0927 V 8.8674835 H 119.97072 V 35.830278 h 29.28178 v 8.592527 h -29.28178 v 28.316597 h 33.46536 z"
         id="path4721"
         inkscape:connector-curvature="0" />
      <path
         d="M 218.59496,8.8684557 H 195.24752 V 81.332901 h -9.49614 V 8.8684557 H 162.35865 V 0.27633418 h 56.23631 V 8.8684557 Z"
         id="path4723"
         inkscape:connector-curvature="0" />
    </g>
    <g
       transform="translate(0.810127)"
       id="g4801">
      <path
         d="m 88.499492,20.688527 c 9.1648,28.026086 12.636918,78.022075 39.436318,78.022075 v 0 c 2.0407,0 4.10191,-0.199615 6.1713,-0.593174 v 0 C 109.74514,92.437063 106.85785,42.984911 91.992028,17.375595 v 0 c -1.16561,1.059321 -2.322957,2.163524 -3.492536,3.312932"
         id="path4727"
         inkscape:connector-curvature="0"
         style="fill:url(#linearGradient-1)" />
      <path
         d="m 91.992028,17.375595 c 14.865822,25.609316 17.753112,75.061468 42.115082,80.741833 v 0 c 1.91392,-0.351676 3.83198,-0.883362 5.75408,-1.554066 v 0 C 117.99393,85.848547 111.94942,37.82797 95.067431,14.709144 v 0 c -1.022461,0.850957 -2.048891,1.742502 -3.075403,2.666451"
         id="path4729"
         inkscape:connector-curvature="0"
         style="fill:url(#linearGradient-2)" />
      <path
         d="m 113.41121,2.1454582 c -2.03666,0 -4.10208,0.1995342 -6.17535,0.5931747 -5.42291,1.0223798 -10.931447,3.3574076 -16.485189,6.8908557 1.517124,1.4967904 2.960608,3.2102074 4.31838,5.0793314 5.647879,-4.686744 11.258899,-8.1505213 16.849579,-10.2323035 2.09782,-0.7769924 4.18779,-1.3616608 6.28561,-1.7460659 -1.51315,-0.3848101 -3.10813,-0.5849924 -4.79303,-0.5849924"
         id="path4731"
         inkscape:connector-curvature="0"
         style="fill:#14559a" />
      <path
         d="m 156.93137,86.686704 c 2.237,-1.778795 4.47814,-3.746107 6.72332,-5.892942 C 154.34261,52.898187 151.00959,2.1866937 124.022,2.1866937 c -1.93029,0 -3.87694,0.1799291 -5.81954,0.5397873 24.5828,6.1141874 27.73185,59.59842 38.72891,83.960223"
         id="path4733"
         inkscape:connector-curvature="0"
         style="fill:url(#linearGradient-3)" />
      <path
         d="M 118.20327,2.7284253 C 116.69011,2.3440202 115.09522,2.143838 113.41024,2.143838 l 10.61265,0.038886 c -1.93037,0 -3.87702,0.1799291 -5.81962,0.544081"
         id="path4735"
         inkscape:connector-curvature="0"
         style="fill:#3092c4" />
      <path
         d="m 156.46004,92.61278 c -1.05511,-1.006015 -2.05691,-2.110218 -3.04268,-3.288061 -4.53954,3.21442 -9.06264,5.651848 -13.55698,7.238643 1.59887,0.781286 3.27559,1.362066 5.05479,1.721924 1.37802,0.281357 2.80547,0.425316 4.30622,0.425316 5.04264,0 9.02992,-0.597063 12.42427,-2.224769 -1.8688,-1.010309 -3.58246,-2.318987 -5.18562,-3.873053"
         id="path4737"
         inkscape:connector-curvature="0"
         style="fill:#1969bc" />
      <path
         d="m 111.91669,4.4811342 c 22.01867,11.5163548 23.93259,63.6674428 41.50165,84.8435848 v 0 c 1.17784,-0.830056 2.34337,-1.709448 3.5089,-2.638015 v 0 C 145.93026,62.324901 142.78526,8.8363747 118.20659,2.726481 v 0 c -2.09798,0.3925874 -4.19192,0.9736912 -6.2899,1.7546532"
         id="path4739"
         inkscape:connector-curvature="0"
         style="fill:url(#linearGradient-4)" />
      <path
         d="M 95.067431,14.709144 C 111.94942,37.82797 117.99393,85.848547 139.86119,96.563362 v 0 c 4.4945,-1.586795 9.01768,-4.024223 13.55715,-7.238643 v 0 C 135.84928,68.148577 133.93536,15.997489 111.91669,4.4811342 v 0 C 106.32617,6.5586228 100.71523,10.0224 95.067431,14.709144"
         id="path4741"
         inkscape:connector-curvature="0"
         style="fill:url(#linearGradient-5)" />
      <path
         d="m 77.698317,20.013529 c -2.646035,5.983352 -5.349266,13.847494 -8.616911,24.112527 6.49843,-9.156861 12.976445,-17.045631 19.4176,-23.437529 -0.887413,-2.72794 -1.840284,-5.242978 -2.866795,-7.484355 -2.633722,2.016324 -5.28794,4.286218 -7.933894,6.809357"
         id="path4743"
         inkscape:connector-curvature="0"
         style="fill:url(#linearGradient-6)" />
      <path
         d="m 87.97858,11.479008 c -0.777073,0.556152 -1.558035,1.124779 -2.34321,1.725812 1.02635,2.241134 1.975089,4.756415 2.862744,7.484031 1.169337,-1.145114 2.330735,-2.253286 3.492213,-3.312608 -1.24719,-2.143028 -2.572233,-4.12241 -4.011747,-5.897235"
         id="path4745"
         inkscape:connector-curvature="0"
         style="fill:#2b74b1" />
      <path
         d="m 90.750671,9.6294886 c -0.924273,0.5849924 -1.844253,1.2023094 -2.772739,1.8484654 1.439514,1.774907 2.764557,3.754289 4.016041,5.901529 1.026592,-0.928486 2.052941,-1.824 3.075402,-2.670663 -1.357772,-1.8688 -2.801256,-3.582541 -4.318704,-5.0793314"
         id="path4747"
         inkscape:connector-curvature="0"
         style="fill:#125a9e" />
      <path
         d="M 240.93672,0.01126076 C 228.48361,48.035727 202.47353,86.609175 180.66759,96.334339 h -0.0413 c -0.39664,0.179929 -0.78931,0.343575 -1.17777,0.502846 -0.0535,0.0324 -0.10207,0.03645 -0.14331,0.0559 -0.11455,0.04618 -0.22084,0.08182 -0.33539,0.127595 -0.0535,0.0324 -0.10208,0.04294 -0.15109,0.06238 -0.1839,0.06562 -0.36399,0.121114 -0.54392,0.193053 -0.0778,0.0324 -0.15117,0.05266 -0.22513,0.07858 -0.0818,0.03241 -0.17604,0.06238 -0.26994,0.08838 -0.0817,0.0324 -0.16745,0.0559 -0.26175,0.09154 -0.0778,0.0324 -0.15959,0.04618 -0.23291,0.07858 -0.15968,0.04618 -0.30655,0.08506 -0.46623,0.140638 -0.0656,0 -0.12662,0.03565 -0.19629,0.05266 -0.0982,0.0324 -0.20877,0.0559 -0.31506,0.08506 -0.0737,0.0324 -0.1348,0.04294 -0.21266,0.05914 -0.11058,0.0324 -0.23331,0.06238 -0.34357,0.08839 -0.1472,0.0324 -0.27804,0.06238 -0.41714,0.09162 0.9856,0.364071 2.01212,0.54797 3.12045,0.54797 20.67718,0 41.52579,-37.056001 76.02204,-98.678684 h -13.54484 z"
         id="path4749"
         inkscape:connector-curvature="0"
         style="fill:url(#linearGradient-7)" />
      <path
         d="m 64.591036,4.0943797 c 0.01296,0 0.02916,-0.032405 0.03727,-0.032405 0.0162,0 0.04132,0 0.04942,-0.032405 h 0.02592 c 0.114471,-0.038886 0.220841,-0.085063 0.335312,-0.1275949 0.02916,0 0.04456,0 0.06562,-0.032405 0.02917,0 0.05752,-0.032405 0.08604,-0.036456 0.122734,-0.038886 0.245387,-0.085063 0.359939,-0.1275949 h 0.01944 c 0.274147,-0.081742 0.527554,-0.1831696 0.793357,-0.2780355 0.03727,0 0.07372,-0.032405 0.11844,-0.032405 0.110583,-0.035646 0.225135,-0.075342 0.339443,-0.1014279 0.05347,-0.032405 0.10637,-0.032405 0.155383,-0.049418 0.11844,-0.035646 0.233316,-0.075342 0.343574,-0.1014278 0.04942,0 0.09422,-0.032405 0.130836,-0.035646 0.380354,-0.1046684 0.756577,-0.2028557 1.136932,-0.294481 0.05347,0 0.09819,-0.032405 0.155382,-0.035646 0.110258,-0.032405 0.212739,-0.049418 0.331261,-0.06562 0.04942,-0.032405 0.106369,-0.032405 0.163645,-0.049418 0.110258,-0.032405 0.216547,-0.035645 0.335312,-0.06238 h 0.07777 c 0.229022,-0.046177 0.462177,-0.085063 0.6912,-0.1275949 h 0.139017 c 0.110259,-0.032405 0.208446,-0.035646 0.319028,-0.055899 0.06076,0 0.122653,-0.032405 0.179929,-0.032405 0.102076,0 0.204476,-0.032405 0.306552,-0.046177 0.05347,0 0.106289,0 0.167858,-0.032405 0.241094,-0.032405 0.490694,-0.045367 0.744264,-0.06562 -0.715668,-0.06886 -1.45183,-0.1145508 -2.200225,-0.1145508 -23.286376,0 -55.369576,43.206886 -69.82235551,99.161278 H 2.9616446 C 7.5870218,93.03761 11.742096,85.234552 15.541371,77.909873 25.663222,38.277347 46.27908,11.24877 64.592494,4.0879797"
         id="path4751"
         inkscape:connector-curvature="0"
         style="fill:url(#linearGradient-8)" />
      <path
         d="M 77.69856,20.013529 C 80.344677,17.49039 82.998732,15.220496 85.632454,13.204496 85.031421,11.887635 84.409811,10.668881 83.742995,9.5522835 81.612443,12.136911 79.66579,15.547706 77.69856,20.013529"
         id="path4753"
         inkscape:connector-curvature="0"
         style="fill:#0d82ca" />
      <path
         d="m 79.611512,4.4219139 c 1.521337,1.2759494 2.882997,3.0305215 4.130511,5.132638 0.392588,-0.4825924 0.789469,-0.9284861 1.20239,-1.3456202 -1.729782,-1.6153115 -3.598906,-2.9403545 -5.627382,-3.9381874 0.08182,0.045367 0.163564,0.081823 0.248628,0.1177924 0,0 0.0324,0.032405 0.04618,0.032405"
         id="path4755"
         inkscape:connector-curvature="0"
         style="fill:#0d82ca" />
      <path
         d="M 15.540326,77.914653 C 36.773719,36.997671 46.834228,11.102056 64.591441,4.0924354 v 0 C 46.282127,11.257762 25.662177,38.286015 15.540326,77.914653"
         id="path4757"
         inkscape:connector-curvature="0"
         style="fill:url(#linearGradient-9)" />
      <path
         d="m 84.943036,8.2078785 c -0.412841,0.4214278 -0.805428,0.8631088 -1.202309,1.3457013 0.666734,1.1162732 1.288101,2.3310582 1.893671,3.6518882 0.785175,-0.601033 1.566137,-1.16966 2.34321,-1.725812 -0.960891,-1.186026 -1.97517,-2.2860155 -3.034572,-3.2717775"
         id="path4759"
         inkscape:connector-curvature="0"
         style="fill:#127bca" />
      <path
         d="m 25.179601,101.10712 v 0 c -0.130868,0.0324 -0.261736,0.0324 -0.384429,0.0462 h -0.07364 c -0.110582,0 -0.225094,0.0324 -0.32717,0.0324 h -0.05331 c -0.265665,0.0324 -0.527562,0.0324 -0.781124,0.0527 h -0.08179 C 44.969187,100.637 54.792474,89.876982 59.66733,74.270947 63.372525,62.439777 66.415279,52.473195 69.08173,44.110015 60.080413,56.779747 51.038185,71.882613 41.946945,88.801539 37.562848,96.956273 30.896745,100.36278 25.179431,101.09108"
         id="path4761"
         inkscape:connector-curvature="0"
         style="fill:url(#linearGradient-10)" />
      <path
         d="m 25.179601,101.09894 v 0 c 5.717314,-0.72831 12.383425,-4.130839 16.767514,-12.289542 v 0 C 51.038347,71.894683 60.084626,56.787605 69.07776,44.117873 v 0 c 3.271696,-10.269245 5.970876,-18.129174 8.620962,-24.112526 v 0 C 59.773861,37.067342 41.779435,65.437327 25.179601,101.09075"
         id="path4763"
         inkscape:connector-curvature="0"
         style="fill:url(#linearGradient-11)" />
      <path
         d="M 15.539313,77.915625 C 11.740201,85.240304 7.5851342,93.043362 2.9595868,101.29199 h 8.1017352 c 1.07149,-8.191757 2.592835,-16.002917 4.477991,-23.372476"
         id="path4765"
         inkscape:connector-curvature="0"
         style="fill:#05a1e6" />
      <path
         d="m 71.453861,2.3260354 c -0.06562,0 -0.114552,0.032405 -0.171747,0.032405 v 0 c -0.09819,0.032405 -0.200587,0.032405 -0.302663,0.042937 v 0 c -0.06076,0 -0.11844,0 -0.179929,0.032405 v 0 c -0.110582,0.032405 -0.212658,0.035646 -0.319028,0.055899 v 0 c -0.04942,0 -0.09811,0 -0.139018,0.032405 v 0 c -0.233316,0.038886 -0.462177,0.081823 -0.691199,0.1210329 v 0 h -0.07777 v 0 c -0.11844,0.032405 -0.225053,0.049418 -0.335311,0.06562 v 0 c -0.05752,0.032405 -0.114552,0.032405 -0.167858,0.045367 v 0 c -0.110259,0.032405 -0.220841,0.046177 -0.327129,0.06562 v 0 c -0.05752,0.032405 -0.102076,0.032405 -0.155464,0.035646 v 0 c -0.380273,0.091625 -0.756577,0.1898126 -1.136931,0.294481 v 0 c -0.04051,0 -0.08174,0.032405 -0.130836,0.038886 v 0 c -0.114471,0.032405 -0.225053,0.06562 -0.343494,0.1014279 v 0 c -0.04942,0.032405 -0.106369,0.032405 -0.155463,0.045367 v 0 c -0.114471,0.032405 -0.229023,0.06562 -0.339443,0.1014278 v 0 c -0.04456,0 -0.08174,0.032405 -0.122653,0.032405 v 0 C 66.09617,3.5674734 65.83855,3.6656608 65.568616,3.7474835 v 0 0 0 c -0.114471,0.035646 -0.237205,0.081742 -0.359858,0.1242735 v 0 c -0.04942,0.032405 -0.09422,0.039696 -0.15117,0.06238 v 0 C 64.943036,3.969783 64.828565,4.01596 64.722195,4.0584914 v 0 c -0.04051,0.032405 -0.08174,0.035646 -0.110258,0.052658 v 0 C 46.854765,11.12077 36.794256,37.016385 15.560863,77.933367 v 0 C 13.675536,85.302927 12.1501,93.114086 11.08271,101.30552 v 0 h 1.136915 c 3.202188,0 4.105997,-0.0324 7.790761,-0.0324 v 0 h 0.188119 0.54801 0.188128 0.05331 0.18812 0.106329 0.07364 0.147225 0.458045 0.458038 0.384421 0.102084 0.674787 v 0 c 0.253553,-0.0324 0.515297,-0.0324 0.781124,-0.0526 v 0 h 0.04909 v 0 c 0.110582,0 0.22084,-0.0324 0.327169,-0.0324 v 0 h 0.07753 v 0 c 0.118433,0 0.253554,-0.0324 0.384422,-0.0462 v 0 C 41.799818,65.488446 59.794195,37.118461 77.719056,20.056466 v 0 c 1.9712,-4.465823 3.913803,-7.876618 6.040466,-10.4570331 v 0 C 82.516221,7.4973975 81.154398,5.7388557 79.633061,4.4625823 v 0 c 0,0 -0.04132,0 -0.04456,-0.032405 v 0 c -0.08603,-0.035646 -0.167453,-0.078582 -0.253488,-0.1210329 v 0 c -0.08611,-0.046177 -0.159673,-0.081823 -0.249354,-0.127595 v 0 C 79.007887,4.1491443 78.917881,4.1062076 78.840271,4.063757 v 0 C 78.733983,4.0313519 78.647947,3.9851747 78.554054,3.942643 v 0 C 78.476284,3.910238 78.406773,3.877023 78.328919,3.844537 v 0 C 78.169243,3.782157 78.009973,3.7169418 77.858641,3.648243 v 0 C 77.78897,3.615838 77.723836,3.5988253 77.658054,3.5729013 v 0 C 77.547795,3.5332051 77.420849,3.481276 77.306378,3.4321823 v 0 c -0.05752,-0.032405 -0.122734,-0.038886 -0.188112,-0.06238 v 0 c -0.167534,-0.055899 -0.33126,-0.1144708 -0.486724,-0.166886 v 0 h -0.04051 v 0 C 76.402844,3.1405367 76.218864,3.0950076 76.026621,3.0425924 v 0 c -0.04456,-0.032405 -0.08182,-0.032405 -0.126623,-0.038886 v 0 C 75.73214,2.9575291 75.58494,2.912081 75.425588,2.8695494 v 0 c -0.04051,0 -0.07777,-0.032405 -0.110258,-0.032405 v 0 C 74.930925,2.7357165 74.534206,2.6539747 74.133436,2.5787139 v 0 c -0.04132,0 -0.08174,-0.032405 -0.122653,-0.032405 v 0 c -0.171747,-0.032405 -0.339443,-0.06238 -0.51119,-0.081823 v 0 C 73.458276,2.432081 73.433973,2.432081 73.397517,2.432081 v 0 C 73.193041,2.3996759 72.992616,2.3761823 72.79219,2.3534987 v 0 h -0.106288 v 0 c -0.163565,-0.032405 -0.314734,-0.035645 -0.466228,-0.052658 v 0 c -0.257782,0.032405 -0.503008,0.046177 -0.744344,0.068861"
         id="path4767"
         inkscape:connector-curvature="0"
         style="fill:url(#linearGradient-12)" />
      <path
         d="m 192.29445,26.597833 c -4.08555,13.086866 -7.39411,23.883504 -10.27314,32.766218 v 0 c 11.20964,-15.426107 22.25167,-34.831636 32.7663,-57.2261269 v 0 C 202.52262,5.9899949 195.97923,14.807575 192.29445,26.597833"
         id="path4769"
         inkscape:connector-curvature="0"
         style="fill:url(#linearGradient-13)" />
      <path
         d="m 182.37704,95.516435 c -0.57252,0.29116 -1.14503,0.568304 -1.70945,0.817904 21.80594,-9.725164 47.81602,-48.298612 60.26913,-96.32307824 h -2.52347 C 209.80217,51.119311 200.60051,85.333225 182.37704,95.516435"
         id="path4771"
         inkscape:connector-curvature="0"
         style="fill:url(#linearGradient-14)" />
      <path
         d="m 168.13809,91.222602 c 4.74394,-5.790865 8.60849,-15.63447 13.88444,-31.858227 -6.08567,8.35921 -12.21161,15.544871 -18.34216,21.405164 0,0.03241 0,0.03241 -0.0324,0.05266 1.33752,4.007858 2.80547,7.545194 4.4783,10.399756"
         id="path4773"
         inkscape:connector-curvature="0"
         style="fill:#079ae1" />
      <path
         d="m 168.13809,91.222602 c -1.61555,1.971281 -3.32476,3.472284 -5.22661,4.584669 -0.41713,0.242147 -0.83816,0.470197 -1.26777,0.678886 2.00823,1.083625 4.19994,1.807635 6.65366,2.097823 v 0 c 0.35961,0.03565 0.71558,0.06886 1.08791,0.09487 h 0.0656 c 0.16689,0 0.34358,0 0.52351,0.03241 h 0.0721 0.5359 0.57681 0.18001 0.40895 c 0.0656,0 0.13408,0 0.19953,-0.03241 0.1276,0 0.26176,0 0.39259,-0.03241 h 0.0462 0.1472 c 0.13416,0 0.28136,-0.0324 0.42531,-0.04618 h 0.0324 c 0.0429,0 0.0883,-0.0324 0.13084,-0.0324 0.15052,-0.0324 0.3076,-0.04618 0.45415,-0.06886 h 0.13416 c 0.1668,-0.03241 0.33928,-0.05266 0.51103,-0.08506 h 0.0324 0.0494 c 0.34357,-0.06562 0.67889,-0.130835 1.01817,-0.215899 -2.81365,-1.030643 -5.16926,-3.459888 -7.19773,-6.919696"
         id="path4775"
         inkscape:connector-curvature="0"
         style="fill:#1969bc" />
      <path
         d="m 127.93629,98.711251 c 2.04087,0 4.10208,-0.199534 6.17138,-0.597064 1.91401,-0.347463 3.8319,-0.879473 5.75401,-1.550177 1.59919,0.781286 3.27591,1.362066 5.05081,1.721924 1.37811,0.281357 2.80944,0.425317 4.31053,0.425317 z"
         id="path4777"
         inkscape:connector-curvature="0"
         style="fill:#1e5cb3" />
      <path
         d="m 149.22334,98.711251 c 5.03842,0 9.02991,-0.597064 12.42037,-2.22477 2.0079,1.083625 4.19994,1.807635 6.65366,2.098147 v 0 c 0.35993,0.03565 0.7159,0.06886 1.08791,0.09487 h 0.0656 c 0.16689,0 0.34358,0 0.52351,0.0324 h 0.0753 0.5359 -21.37673 z"
         id="path4779"
         inkscape:connector-curvature="0"
         style="fill:#1e5cb3" />
      <path
         d="m 170.59837,98.711251 h 0.58078 0.17993 0.40506 c 0.0689,0 0.13408,0 0.19953,-0.03241 0.1276,0 0.26176,0 0.39688,-0.03241 h 0.0429 0.15052 c 0.13408,0 0.28136,-0.0324 0.42135,-0.04537 h 0.0357 c 0.0429,0 0.0851,-0.0324 0.12759,-0.0324 0.15052,-0.0324 0.30761,-0.04537 0.45383,-0.06886 0.0494,0 0.0883,0 0.14064,-0.0324 0.16689,-0.03241 0.33961,-0.04942 0.51143,-0.08174 h 0.0324 0.0494 c 0.34357,-0.06562 0.67888,-0.130917 1.01816,-0.21598 v 0 c 0.98544,0.363828 2.01212,0.548051 3.12021,0.548051 l -7.86026,0.0324 z"
         id="path4781"
         inkscape:connector-curvature="0"
         style="fill:#1d60b5" />
      <path
         d="m 163.66109,80.822846 v -0.0324 c -2.2451,2.146916 -4.48624,4.114227 -6.7234,5.893022 -1.16966,0.928486 -2.33503,1.807636 -3.51279,2.638015 0.98544,1.177762 1.98756,2.281965 3.04267,3.288061 1.60316,1.553742 3.3165,2.862745 5.18562,3.872729 0.42532,-0.209417 0.85064,-0.437792 1.26356,-0.678886 1.90574,-1.112385 3.61527,-2.613144 5.23082,-4.584344 -1.67283,-2.854562 -3.14086,-6.392304 -4.4783,-10.400081"
         id="path4783"
         inkscape:connector-curvature="0"
         style="fill:#175fab" />
      <path
         d="m 230.42216,0.01126076 h -10.60852 -1.05519 v 0 h -0.99783 v 0 h -0.0389 c -0.68707,0.03240506 -1.35348,0.05589873 -2.01211,0.09818734 v 0 c -0.31077,0.66681519 -0.62979,1.3335494 -0.93667,2.0042532 v 0 C 204.25864,24.508192 193.21662,43.913721 182.00697,59.339828 v 0 c -5.27157,16.223433 -9.14033,26.067362 -13.88435,31.858309 v 0 c 2.02848,3.459807 4.38821,5.892941 7.19368,6.923585 v 0 c 0.0818,-0.03241 0.1472,-0.03241 0.22084,-0.04942 v 0 h 0.0454 v 0 c 0.0494,0 0.10207,-0.0324 0.15546,-0.0324 v 0 c 0.11447,-0.03241 0.23721,-0.05266 0.35168,-0.0883 v 0 c 0.0737,-0.0324 0.1348,-0.03565 0.20877,-0.05914 v 0 c 0.10629,-0.0324 0.21654,-0.0559 0.31473,-0.08182 v 0 c 0.0656,-0.0324 0.13084,-0.04294 0.1963,-0.0559 v 0 c 0.16356,-0.05266 0.31076,-0.09162 0.46622,-0.140719 v 0 c 0.0737,-0.0324 0.1515,-0.05914 0.23324,-0.07858 v 0 c 0.09,-0.0324 0.17993,-0.0559 0.26175,-0.09487 v 0 c 0.0942,-0.0324 0.18811,-0.04942 0.26993,-0.08506 v 0 c 0.0737,-0.0324 0.15117,-0.05266 0.22085,-0.08182 v 0 c 0.18381,-0.06562 0.36399,-0.121033 0.54797,-0.193053 v 0 c 0.0494,0 0.0982,-0.04537 0.15149,-0.0559 v 0 c 0.11026,-0.04618 0.22481,-0.08182 0.33539,-0.130916 v 0 c 0.0405,-0.0324 0.0899,-0.03565 0.14291,-0.05266 v 0 c 0.38448,-0.160324 0.78112,-0.323888 1.17784,-0.502845 v 0 h 0.0413 v 0 c 0.56433,-0.248628 1.13693,-0.527717 1.70539,-0.817904 v 0 C 200.59128,85.337195 209.7931,51.123281 238.40418,0.01523038 v 0 h -7.99117 z"
         id="path4785"
         inkscape:connector-curvature="0"
         style="fill:url(#linearGradient-15)" />
      <path
         d="m 72.199016,2.2570127 c 0.04537,0 0.08603,0 0.130835,0.032405 0.110258,0 0.220841,0 0.331261,0.035646 h 0.110582 c 0.200264,0.032405 0.40077,0.049418 0.605246,0.078582 0.03727,0 0.06967,0 0.102076,0.032405 0.167534,0.032405 0.339443,0.059139 0.51119,0.085063 0.03727,0 0.08612,0.032405 0.126946,0.032405 0.392669,0.078582 0.793438,0.160324 1.177843,0.2617519 0.03646,0 0.07372,0.032405 0.10637,0.032405 0.163565,0.038886 0.310765,0.088304 0.474329,0.1340759 0.04942,0 0.08571,0.032405 0.130917,0.039696 0.192324,0.049418 0.372172,0.098187 0.560283,0.1603241 0.0081,0 0.01944,0 0.04132,0.032405 0.159271,0.048608 0.322916,0.1112304 0.490693,0.1668051 0.06562,0.032405 0.126623,0.046177 0.188112,0.06238 0.114552,0.049418 0.241498,0.098106 0.351757,0.1439595 0.06562,0 0.130835,0.045367 0.200182,0.068861 0.15117,0.068861 0.310845,0.1308354 0.466228,0.1962937 0.08182,0.032405 0.151169,0.068861 0.229023,0.098106 0.09001,0.046177 0.183898,0.088385 0.282086,0.1211139 0.08174,0.038886 0.171747,0.081742 0.249276,0.1177114 0.08603,0.046177 0.167534,0.081823 0.2496,0.1275949 2.028475,0.997914 3.897438,2.3271696 5.627382,3.9385114 C 85.580525,7.5848101 86.247097,6.9834532 86.938297,6.4436658 83.15533,3.7608506 78.869436,2.2313317 73.925071,2.2313317 c -0.572597,0 -1.145114,0.032405 -1.725812,0.075342"
         id="path4787"
         inkscape:connector-curvature="0"
         style="fill:#7dcbec" />
      <path
         d="m 84.943117,8.2078785 c 1.059241,0.985438 2.073438,2.0857515 3.034491,3.2717775 0.928324,-0.646157 1.848547,-1.267848 2.77282,-1.8485471 -1.210572,-1.2105722 -2.486521,-2.2984102 -3.815696,-3.2350785 -0.691119,0.5358987 -1.35364,1.1411443 -1.991615,1.8118481"
         id="path4789"
         inkscape:connector-curvature="0"
         style="fill:#5ec5ed" />
      <path
         d="m 72.198042,6.2846314 c 0.580729,0.049076 1.153278,0.069524 1.725827,0.069524 4.944372,0 9.230311,-1.5295243 13.013226,-4.2082366 3.991485,3.1490206 8.817257,4.249133 15.520175,4.249133 H 69.997818 c 0.748403,0 1.480448,-0.044986 2.200224,-0.1104202"
         transform="matrix(1,0,0,-1,0,8.54097)"
         id="path4791"
         inkscape:connector-curvature="0"
         style="fill:url(#linearGradient-16)" />
      <path
         d="m 102.45727,9.6299545 c -6.702918,0 -11.52869,-1.1001124 -15.520175,-4.2491329 1.325042,-0.9365269 2.601009,-2.0243704 3.811541,-3.234903 5.557817,3.5334465 11.062464,5.8727189 16.489414,6.8951282 2.06936,0.3885155 4.13463,0.5889077 6.17127,0.5889077 z"
         transform="matrix(1,0,0,-1,0,11.775874)"
         id="path4793"
         inkscape:connector-curvature="0"
         style="fill:url(#linearGradient-17)" />
      <path
         d="m 182.02131,59.372233 c 2.88316,-8.890896 6.18346,-19.683241 10.27719,-32.7744 3.68891,-11.794471 10.22007,-20.6117267 22.48482,-24.4599089 0.32397,-0.658633 0.62987,-1.33751904 0.94493,-2.00425321 C 195.73384,1.3320911 186.38903,11.502825 181.68592,26.565185 c -8.22424,26.296304 -13.20547,43.341934 -18.00255,54.20403 6.12626,-5.856405 12.25252,-13.045954 18.33794,-21.396982"
         id="path4795"
         inkscape:connector-curvature="0"
         style="fill:url(#linearGradient-18)" />
      <path
         d="m 211.35462,91.706167 h -2.26568 v 7.042349 h -0.92427 v -7.042349 h -2.27379 V 90.86801 h 5.46374 z"
         id="path4797"
         inkscape:connector-curvature="0"
         style="fill:#000000" />
      <path
         d="m 220.63187,98.74722 h -0.91998 v -5.29199 c 0,-0.417134 0.0324,-0.928162 0.0753,-1.529519 v 0 c -0.0949,0.35994 -0.17345,0.60954 -0.24539,0.768892 l -2.68281,6.052617 h -0.44987 l -2.691,-6.007493 c -0.0786,-0.166887 -0.157,-0.437712 -0.24206,-0.814016 h -0.0324 c 0.0324,0.317408 0.0429,0.83038 0.0429,1.541995 v 5.279514 h -0.88336 v -7.880506 h 1.21867 l 2.41685,5.500354 c 0.18317,0.413246 0.29772,0.732193 0.35597,0.944851 h 0.0357 c 0.16032,-0.433499 0.29116,-0.756739 0.38051,-0.969397 l 2.46587,-5.475808 h 1.16148 v 7.880506 z"
         id="path4799"
         inkscape:connector-curvature="0"
         style="fill:#000000" />
    </g>
  </g>
</svg>
